<svg width="134" height="134" viewBox="0 0 134 134" fill="none" xmlns="http://www.w3.org/2000/svg">
<rect width="134" height="134" rx="11" fill="#17141D"/>
<path d="M94.68 39.04C93.88 36.68 91.64 35 89 35H45C42.36 35 40.16 36.68 39.32 39.04L31 63V95C31 97.2 32.8 99 35 99H39C41.2 99 43 97.2 43 95V91H91V95C91 97.2 92.8 99 95 99H99C101.2 99 103 97.2 103 95V63L94.68 39.04ZM45 79C41.68 79 39 76.32 39 73C39 69.68 41.68 67 45 67C48.32 67 51 69.68 51 73C51 76.32 48.32 79 45 79ZM89 79C85.68 79 83 76.32 83 73C83 69.68 85.68 67 89 67C92.32 67 95 69.68 95 73C95 76.32 92.32 79 89 79ZM39 59L45 41H89L95 59H39Z" fill="#453D55"/>
</svg>
