<svg width="134" height="134" viewBox="0 0 134 134" fill="none" xmlns="http://www.w3.org/2000/svg">
<rect width="134" height="134" rx="11" fill="#17141D"/>
<path d="M64.4375 115V91.75C61.875 95.65 56.75 100.45 46.6537 104.05C46.6537 104.05 49.2162 95.5 56.4425 89.75C49.78 91.15 39.735 90.95 26 85C26 85 38.6587 77.95 53.06 79.85C44.9112 75 34.7125 65.4 26.8713 45.55C26.8713 45.55 49.9337 51.7 61.4137 70.7C51.01 46.2 67 15 67 15C79.4538 42.35 76.7887 60.5 72.74 70.5C84.2712 51.65 107.129 45.55 107.129 45.55C99.2875 65.4 89.0888 75 80.94 79.85C95.3413 77.95 108 85 108 85C94.265 90.95 84.22 91.15 77.5575 89.75C84.7838 95.5 87.3463 104.05 87.3463 104.05C77.25 100.45 72.125 95.65 69.5625 91.75V115H64.4375V115Z" fill="#453D55"/>
</svg>
