<svg width="134" height="134" viewBox="0 0 134 134" fill="none" xmlns="http://www.w3.org/2000/svg">
<rect width="134" height="134" rx="11" fill="#17141D"/>
<path d="M82.216 71.7521L73.7308 80.2373L97.7156 104.222L106.201 95.7369L82.216 71.7521Z" fill="#453D55"/>
<path d="M88.6 59.55C96.32 59.55 102.6 53.27 102.6 45.55C102.6 43.23 101.96 41.07 100.96 39.15L90.16 49.95L84.2 43.99L95 33.19C93.08 32.19 90.92 31.55 88.6 31.55C80.88 31.55 74.6 37.83 74.6 45.55C74.6 47.19 74.92 48.75 75.44 50.19L68.04 57.59L60.92 50.47L63.76 47.63L58.12 41.99L66.6 33.51C61.92 28.83 54.32 28.83 49.64 33.51L35.48 47.67L41.12 53.31H29.84L27 56.15L41.16 70.31L44 67.47V56.15L49.64 61.79L52.48 58.95L59.6 66.07L29.96 95.71L38.44 104.19L83.96 58.71C85.4 59.23 86.96 59.55 88.6 59.55Z" fill="#453D55"/>
</svg>
