<svg width="134" height="134" viewBox="0 0 134 134" fill="none" xmlns="http://www.w3.org/2000/svg">
<rect width="134" height="134" rx="11" fill="#17141D"/>
<path d="M102.333 80.25H93.5V71.4167H102.333C104.763 71.4167 106.75 73.4042 106.75 75.8333C106.75 78.2625 104.763 80.25 102.333 80.25ZM102.333 97.9167H93.5V89.0833H102.333C104.763 89.0833 106.75 91.0708 106.75 93.5C106.75 95.9292 104.763 97.9167 102.333 97.9167ZM75.8334 67C70.975 67 67 70.975 67 75.8333H58.1667V93.5H67C67 98.3583 70.975 102.333 75.8334 102.333H89.0834V67H75.8334Z" fill="#453D55"/>
<path d="M31.6667 36.0832C31.6667 38.5123 33.6542 40.4998 36.0833 40.4998H51.5417C55.2075 40.4998 58.1667 43.459 58.1667 47.1248C58.1667 50.7907 55.2075 53.7498 51.5417 53.7498H44.9167C35.1558 53.7498 27.25 61.6557 27.25 71.4165C27.25 81.1773 35.1558 89.0832 44.9167 89.0832H53.75V80.2498H44.9167C40.0583 80.2498 36.0833 76.2748 36.0833 71.4165C36.0833 66.5582 40.0583 62.5832 44.9167 62.5832H51.5417C60.0658 62.5832 67 55.649 67 47.1248C67 38.6007 60.0658 31.6665 51.5417 31.6665H36.0833C33.6542 31.6665 31.6667 33.654 31.6667 36.0832Z" fill="#453D55"/>
</svg>
