<svg width="134" height="134" viewBox="0 0 134 134" fill="none" xmlns="http://www.w3.org/2000/svg">
<rect width="134" height="134" rx="11" fill="#17141D"/>
<path d="M62.3333 100.333C59.5 100.333 57.3477 99.4865 55.8766 97.7932C54.4033 96.0976 53.6666 94.1665 53.6666 91.9998C53.6666 90.5554 53.9866 89.1532 54.6266 87.7932C55.2644 86.4309 56.25 85.3054 57.5833 84.4165C58.8055 83.6387 59.7911 82.6387 60.54 81.4165C61.2911 80.1943 61.8055 78.8887 62.0833 77.4998L61.0833 76.9998C60.75 76.8332 60.4444 76.6387 60.1666 76.4165L52.5 79.1665C51.5555 79.4998 50.6388 79.7776 49.75 79.9998C48.8611 80.2221 47.9444 80.3332 47 80.3332C43.5 80.3332 40.4022 78.8054 37.7066 75.7498C35.0133 72.6943 33.6666 68.2221 33.6666 62.3332C33.6666 59.4998 34.5144 57.3465 36.21 55.8732C37.9033 54.4021 39.8055 53.6665 41.9166 53.6665C43.3611 53.6665 44.7777 53.9854 46.1666 54.6232C47.5555 55.2632 48.6944 56.2498 49.5833 57.5832C50.3611 58.8054 51.3611 59.7909 52.5833 60.5398C53.8055 61.2909 55.1111 61.8054 56.5 62.0832L57 61.0832C57.1666 60.7498 57.3611 60.4443 57.5833 60.1665L54.8333 52.4998C54.5 51.5554 54.2222 50.6387 54 49.7498C53.7777 48.8609 53.6666 47.9721 53.6666 47.0832C53.6666 43.5276 55.1944 40.4021 58.25 37.7065C61.3055 35.0132 65.7777 33.6665 71.6666 33.6665C74.5 33.6665 76.6533 34.5132 78.1266 36.2065C79.5977 37.9021 80.3333 39.8054 80.3333 41.9165C80.3333 43.3609 80.0144 44.7776 79.3766 46.1665C78.7366 47.5554 77.75 48.6943 76.4166 49.5832C75.1944 50.3609 74.2088 51.3609 73.46 52.5832C72.7088 53.8054 72.1944 55.1109 71.9166 56.4998L72.9166 56.9998C73.25 57.1665 73.5555 57.3609 73.8333 57.5832L81.5 54.7498C82.4444 54.4165 83.3477 54.1521 84.21 53.9565C85.07 53.7632 85.9722 53.6665 86.9166 53.6665C91.4166 53.6665 94.7777 55.5276 97 59.2498C99.2222 62.9721 100.333 67.1109 100.333 71.6665C100.333 74.4998 99.4444 76.6521 97.6666 78.1232C95.8888 79.5965 93.9166 80.3332 91.75 80.3332C90.3611 80.3332 89.0133 80.0132 87.7066 79.3732C86.4022 78.7354 85.3055 77.7498 84.4166 76.4165C83.6388 75.1943 82.6388 74.2087 81.4166 73.4598C80.1944 72.7087 78.8888 72.1943 77.5 71.9165L77 72.9165C76.8333 73.2498 76.6388 73.5554 76.4166 73.8332L79.1666 81.4998C79.5 82.3887 79.7777 83.2365 80 84.0432C80.2222 84.8476 80.3333 85.6943 80.3333 86.5832C80.3888 90.1943 78.8888 93.3887 75.8333 96.1665C72.7777 98.9443 68.2777 100.333 62.3333 100.333ZM67 71.9998C68.3888 71.9998 69.5688 71.5132 70.54 70.5398C71.5133 69.5687 72 68.3887 72 66.9998C72 65.6109 71.5133 64.4309 70.54 63.4598C69.5688 62.4865 68.3888 61.9998 67 61.9998C65.6111 61.9998 64.4311 62.4865 63.46 63.4598C62.4866 64.4309 62 65.6109 62 66.9998C62 68.3887 62.4866 69.5687 63.46 70.5398C64.4311 71.5132 65.6111 71.9998 67 71.9998Z" fill="#453D55"/>
</svg>
