<svg width="134" height="134" viewBox="0 0 134 134" fill="none" xmlns="http://www.w3.org/2000/svg">
<rect width="134" height="134" rx="11" fill="#17141D"/>
<path d="M94 108C92.8667 108 91.9173 107.606 91.152 106.819C90.384 106.035 90 105.062 90 103.9V75.2H86C83.8 75.2 81.9173 74.3964 80.352 72.7892C78.784 71.1847 78 69.255 78 67V46.5C78 40.8283 79.9507 35.9944 83.852 31.9983C87.7507 27.9994 92.4667 26 98 26V103.9C98 105.062 97.616 106.035 96.848 106.819C96.0827 107.606 95.1333 108 94 108ZM54 108C52.8667 108 51.916 107.606 51.148 106.819C50.3827 106.035 50 105.062 50 103.9V70.485C46.6 69.5283 43.7507 67.615 41.452 64.745C39.1507 61.875 38 58.5267 38 54.7V30.1C38 28.9383 38.3827 27.9639 39.148 27.1767C39.916 26.3922 40.8667 26 42 26C43.1333 26 44.084 26.3922 44.852 27.1767C45.6173 27.9639 46 28.9383 46 30.1V54.7H50V30.1C50 28.9383 50.3827 27.9639 51.148 27.1767C51.916 26.3922 52.8667 26 54 26C55.1333 26 56.084 26.3922 56.852 27.1767C57.6173 27.9639 58 28.9383 58 30.1V54.7H62V30.1C62 28.9383 62.384 27.9639 63.152 27.1767C63.9173 26.3922 64.8667 26 66 26C67.1333 26 68.084 26.3922 68.852 27.1767C69.6173 27.9639 70 28.9383 70 30.1V54.7C70 58.5267 68.8493 61.875 66.548 64.745C64.2493 67.615 61.4 69.5283 58 70.485V103.9C58 105.062 57.6173 106.035 56.852 106.819C56.084 107.606 55.1333 108 54 108Z" fill="#453D55"/>
</svg>
