<svg width="134" height="134" viewBox="0 0 134 134" fill="none" xmlns="http://www.w3.org/2000/svg">
<rect width="134" height="134" rx="11" fill="#17141D"/>
<path d="M109.46 85.1361C108.174 85.1361 107.096 84.7015 106.227 83.8323C105.356 82.9661 104.92 81.8916 104.92 80.6089V53.8983L68.4863 73.7049C67.8053 74.0821 67.1046 74.3643 66.3842 74.5515C65.6669 74.7416 64.8921 74.8367 64.0597 74.8367C63.2274 74.8367 62.4526 74.7416 61.7352 74.5515C61.0149 74.3643 60.3142 74.0821 59.6332 73.7049L21.3835 52.8797C20.6268 52.5024 20.0412 51.9546 19.6265 51.2363C19.2088 50.521 19 49.7483 19 48.9183C19 48.0883 19.2088 47.3157 19.6265 46.6004C20.0412 45.8821 20.6268 45.3343 21.3835 44.957L59.7467 24.1318C60.4277 23.7545 61.1269 23.4708 61.8442 23.2807C62.5646 23.0936 63.3031 23 64.0597 23C64.8164 23 65.5549 23.0936 66.2753 23.2807C66.9926 23.4708 67.6918 23.7545 68.3728 24.1318L111.616 47.6734C112.373 48.0506 112.96 48.5969 113.378 49.3122C113.793 50.0305 114 50.8047 114 51.6347V80.6089C114 81.8916 113.564 82.9661 112.692 83.8323C111.824 84.7015 110.746 85.1361 109.46 85.1361ZM64.0597 102C63.3031 102 62.5646 101.906 61.8442 101.719C61.1269 101.529 60.4277 101.245 59.7467 100.868L37.0466 88.6447C35.5333 87.8147 34.3604 86.7025 33.5281 85.3081C32.6957 83.9107 32.2796 82.3443 32.2796 80.6089V63.4054L58.0442 77.3266C59.0279 77.8548 60.0116 78.3257 60.9952 78.7391C61.9789 79.1556 63.0004 79.3639 64.0597 79.3639C65.1191 79.3639 66.1603 79.1375 67.1833 78.6848C68.2033 78.2321 69.2051 77.7416 70.1888 77.2135L95.8399 63.4054V80.6089C95.8399 82.3443 95.4237 83.9107 94.5914 85.3081C93.7591 86.7025 92.5862 87.8147 91.0729 88.6447L68.3728 100.868C67.6918 101.245 66.9926 101.529 66.2753 101.719C65.5549 101.906 64.8164 102 64.0597 102V102Z" fill="#453D55"/>
</svg>
