<svg width="134" height="134" viewBox="0 0 134 134" fill="none" xmlns="http://www.w3.org/2000/svg">
<rect width="134" height="134" rx="11" fill="#17141D"/>
<path d="M26 67C26 56.1261 30.3196 45.6976 38.0086 38.0086C45.6976 30.3196 56.1261 26 67 26C77.8739 26 88.3024 30.3196 95.9914 38.0086C103.68 45.6976 108 56.1261 108 67C108 77.8739 103.68 88.3024 95.9914 95.9914C88.3024 103.68 77.8739 108 67 108C56.1261 108 45.6976 103.68 38.0086 95.9914C30.3196 88.3024 26 77.8739 26 67V67ZM52.1328 35.6508C47.5311 37.8391 43.4658 41.0108 40.2238 44.942L44.3049 58.2134L50.6505 60.3265L63.8462 50.2972V43.4597L52.1328 35.6445V35.6508ZM32.5348 70.9991C33.1655 76.4552 35.0578 81.5329 37.9152 85.9168H49.9251L53.9305 81.9114L48.7392 66.3314L42.2802 64.1805L32.5348 70.9928V70.9991ZM59.9732 100.973C64.6092 101.927 69.3908 101.927 74.0268 100.973L79.0098 89.7708L75.1558 85.9231H58.8442L54.9965 89.7708L59.9732 100.98V100.973ZM96.0785 85.9231C98.8538 81.6717 100.721 76.7769 101.402 71.51L91.6631 64.2057L85.2608 66.3377L80.0695 81.9177L84.0749 85.9231H96.0785ZM93.6942 44.8411C90.4659 40.9537 86.4302 37.8155 81.8672 35.6445L70.1538 43.4597V50.2972L83.3495 60.3265L89.6825 58.2197L93.6942 44.8411Z" fill="#453D55"/>
</svg>
