<svg width="22" height="22" viewBox="0 0 22 22" fill="none" xmlns="http://www.w3.org/2000/svg">
<path d="M20.7778 11C20.4519 11 20.1618 10.8827 19.9076 10.648C19.6525 10.4141 19.5046 10.1241 19.4639 9.77778C19.1991 7.88333 18.3997 6.26878 17.0659 4.93411C15.7312 3.60026 14.1167 2.80093 12.2222 2.53611C11.8759 2.49537 11.5859 2.35278 11.352 2.10833C11.1173 1.86389 11 1.56852 11 1.22222C11 0.875926 11.1222 0.585444 11.3667 0.350778C11.6111 0.116926 11.8963 0.0203703 12.2222 0.0611111C14.7889 0.346296 16.9787 1.39537 18.7917 3.20833C20.6046 5.0213 21.6537 7.21111 21.9389 9.77778C21.9796 10.1037 21.8827 10.3889 21.648 10.6333C21.4141 10.8778 21.1241 11 20.7778 11ZM15.675 11C15.4102 11 15.1759 10.9083 14.9722 10.725C14.7685 10.5417 14.6157 10.2972 14.5139 9.99167C14.3509 9.40093 14.0405 8.87619 13.5826 8.41744C13.1238 7.95952 12.5991 7.64907 12.0083 7.48611C11.7028 7.38426 11.4583 7.23148 11.275 7.02778C11.0917 6.82407 11 6.57963 11 6.29444C11 5.88704 11.1426 5.55581 11.4278 5.30078C11.713 5.04656 12.0287 4.96019 12.375 5.04167C13.5157 5.30648 14.4988 5.85119 15.3242 6.67578C16.1488 7.50118 16.6935 8.48426 16.9583 9.625C17.0398 9.9713 16.9481 10.287 16.6833 10.5722C16.4185 10.8574 16.0824 11 15.675 11V11ZM20.7167 22C18.0889 22 15.5275 21.4141 13.0326 20.2424C10.5368 19.0716 8.32659 17.5234 6.402 15.598C4.47659 13.6734 2.92844 11.4632 1.75756 8.96744C0.585852 6.47248 0 3.91111 0 1.28333C0 0.916667 0.122222 0.611111 0.366667 0.366667C0.611111 0.122222 0.916667 0 1.28333 0H6.23333C6.51852 0 6.77315 0.0916665 6.99722 0.275C7.2213 0.458333 7.3537 0.692593 7.39444 0.977778L8.18889 5.25556C8.22963 5.54074 8.22474 5.80026 8.17422 6.03411C8.12289 6.26878 8.00556 6.47778 7.82222 6.66111L4.88889 9.65555C5.74444 11.1222 6.81389 12.4972 8.09722 13.7806C9.38056 15.0639 10.7963 16.1741 12.3444 17.1111L15.2167 14.2389C15.4 14.0556 15.6396 13.9179 15.9353 13.8258C16.2303 13.7345 16.5204 13.7093 16.8056 13.75L21.0222 14.6056C21.3074 14.6667 21.5417 14.804 21.725 15.0174C21.9083 15.2317 22 15.4815 22 15.7667V20.7167C22 21.0833 21.8778 21.3889 21.6333 21.6333C21.3889 21.8778 21.0833 22 20.7167 22Z" fill="#453D55"/>
</svg>
