<svg width="790" height="230" viewBox="0 0 790 230" fill="none" xmlns="http://www.w3.org/2000/svg">
<path d="M320.666 55.624L321.818 77.64C319.941 80.7973 317.423 83.656 314.266 86.216C311.109 88.776 307.183 90.8667 302.49 92.488C297.797 94.024 292.25 94.792 285.85 94.792C275.439 94.7067 266.309 92.8293 258.458 89.16C250.693 85.4053 244.677 80.072 240.41 73.16C236.143 66.248 234.01 57.8853 234.01 48.072C234.01 38.5147 236.101 30.28 240.282 23.368C244.463 16.3707 250.437 10.9947 258.202 7.24C266.053 3.48533 275.397 1.60799 286.234 1.60799C293.061 1.60799 299.162 2.29066 304.538 3.656C309.999 5.02133 314.565 6.68533 318.234 8.64799L318.362 30.536H317.21C314.906 22.088 311.151 16.072 305.946 12.488C300.741 8.81866 294.639 6.98399 287.642 6.98399C280.815 6.98399 274.97 8.64799 270.106 11.976C265.242 15.304 261.487 19.9973 258.842 26.056C256.197 32.1147 254.874 39.368 254.874 47.816C254.874 56.264 256.111 63.56 258.586 69.704C261.146 75.848 264.73 80.6267 269.338 84.04C274.031 87.4533 279.535 89.2453 285.85 89.416C292.421 89.416 297.967 88.3493 302.49 86.216C307.013 84.0827 310.639 80.5413 313.37 75.592C316.186 70.6427 318.277 63.9867 319.642 55.624H320.666ZM427.965 1.60799L428.989 15.56L390.973 81.48C390.973 81.48 390.546 82.248 389.693 83.784C388.84 85.2347 387.986 87.0267 387.133 89.16C386.365 91.2933 385.981 93.4267 385.981 95.56H384.701L379.709 84.424L427.965 1.60799ZM341.181 83.656V93H326.973V91.72C327.058 91.72 327.442 91.72 328.125 91.72C328.722 91.72 329.021 91.72 329.021 91.72C331.325 91.72 333.373 91.0373 335.165 89.672C336.957 88.2213 338.024 86.216 338.365 83.656H341.181ZM346.813 85.704C346.813 85.7893 346.813 85.8747 346.813 85.96C346.813 86.0453 346.813 86.1733 346.813 86.344C346.813 87.7093 347.282 88.9893 348.221 90.184C349.245 91.2933 350.44 91.848 351.805 91.848H353.725V93H345.917V85.704H346.813ZM348.989 1.60799H350.141L354.621 14.408L346.045 93H337.085L348.989 1.60799ZM350.141 1.60799L391.997 70.344L384.701 95.56L346.813 31.944L350.141 1.60799ZM429.117 1.60799L441.277 93H420.669L414.269 34.12L427.965 1.60799H429.117ZM437.309 83.656H439.997C440.424 86.216 441.533 88.2213 443.325 89.672C445.117 91.0373 447.122 91.72 449.341 91.72C449.341 91.72 449.682 91.72 450.365 91.72C451.048 91.72 451.389 91.72 451.389 91.72V93H437.309V83.656ZM419.901 85.704H420.797V93H412.989V91.848H414.909C416.36 91.848 417.554 91.2933 418.493 90.184C419.432 88.9893 419.901 87.7093 419.901 86.344C419.901 86.1733 419.901 86.0453 419.901 85.96C419.901 85.8747 419.901 85.7893 419.901 85.704ZM527.565 1.60799C527.565 1.60799 527.565 1.82133 527.565 2.24799C527.565 2.58933 527.565 2.75999 527.565 2.75999L477.133 93H455.885V91.848L502.733 8.64799H457.677V3.272H513.997C515.704 3.272 517.496 3.18666 519.373 3.016C521.336 2.84533 523.042 2.632 524.493 2.376C526.029 2.12 527.053 1.864 527.565 1.60799ZM526.157 87.624L525.389 93H464.845V87.624H526.157ZM531.149 67.272L526.541 93H503.117L504.781 88.904L506.829 87.624C512.461 87.624 517.282 85.7893 521.293 82.12C525.389 78.3653 528.248 73.416 529.869 67.272H531.149ZM471.885 8.64799C467.874 8.73333 464.717 9.97066 462.413 12.36C460.109 14.664 458.957 17.8213 458.957 21.832V23.368H457.677V8.26399H471.885V8.64799ZM457.677 0.967995C458.53 1.30933 459.81 1.65066 461.517 1.992C463.309 2.33333 465.272 2.632 467.405 2.88799C469.538 3.14399 471.501 3.272 473.293 3.272L457.677 4.67999V0.967995ZM68.2508 198.8L69.1508 216C67.6841 218.467 65.7175 220.7 63.2508 222.7C60.7841 224.7 57.7175 226.333 54.0508 227.6C50.3841 228.8 46.0508 229.4 41.0508 229.4C32.9174 229.333 25.7841 227.867 19.6508 225C13.5841 222.067 8.88412 217.9 5.55078 212.5C2.21745 207.1 0.550781 200.567 0.550781 192.9C0.550781 185.433 2.18411 179 5.45078 173.6C8.71745 168.133 13.3841 163.933 19.4508 161C25.5841 158.067 32.8841 156.6 41.3508 156.6C46.6841 156.6 51.4508 157.133 55.6508 158.2C59.9175 159.267 63.4841 160.567 66.3508 162.1L66.4508 179.2H65.5508C63.7508 172.6 60.8175 167.9 56.7508 165.1C52.6841 162.233 47.9174 160.8 42.4508 160.8C37.1174 160.8 32.5508 162.1 28.7508 164.7C24.9508 167.3 22.0174 170.967 19.9508 175.7C17.8841 180.433 16.8508 186.1 16.8508 192.7C16.8508 199.3 17.8174 205 19.7508 209.8C21.7508 214.6 24.5508 218.333 28.1508 221C31.8174 223.667 36.1174 225.067 41.0508 225.2C46.1841 225.2 50.5175 224.367 54.0508 222.7C57.5841 221.033 60.4174 218.267 62.5508 214.4C64.7508 210.533 66.3841 205.333 67.4508 198.8H68.2508ZM112.878 166.7C118.211 166.7 123.045 167.433 127.378 168.9C131.711 170.3 135.445 172.367 138.578 175.1C141.711 177.833 144.111 181.133 145.778 185C147.511 188.867 148.378 193.233 148.378 198.1C148.378 202.9 147.511 207.233 145.778 211.1C144.111 214.9 141.711 218.167 138.578 220.9C135.445 223.633 131.711 225.733 127.378 227.2C123.045 228.6 118.211 229.3 112.878 229.3C107.611 229.3 102.811 228.6 98.4781 227.2C94.1448 225.733 90.4115 223.633 87.2781 220.9C84.1448 218.167 81.7448 214.9 80.0781 211.1C78.4115 207.233 77.5781 202.9 77.5781 198.1C77.5781 193.233 78.4115 188.867 80.0781 185C81.7448 181.133 84.1448 177.833 87.2781 175.1C90.4115 172.367 94.1448 170.3 98.4781 168.9C102.811 167.433 107.611 166.7 112.878 166.7ZM112.878 225.4C116.945 225.4 120.478 224.3 123.478 222.1C126.545 219.833 128.878 216.667 130.478 212.6C132.145 208.533 132.978 203.7 132.978 198.1C132.978 192.433 132.145 187.567 130.478 183.5C128.878 179.367 126.545 176.2 123.478 174C120.478 171.733 116.945 170.6 112.878 170.6C108.878 170.6 105.378 171.733 102.378 174C99.3781 176.2 97.0448 179.367 95.3781 183.5C93.7115 187.567 92.8781 192.433 92.8781 198.1C92.8781 203.7 93.7115 208.533 95.3781 212.6C97.0448 216.667 99.3781 219.833 102.378 222.1C105.378 224.3 108.878 225.4 112.878 225.4ZM159.936 166.6L218.636 218.2L219.636 229.3L161.036 177.7L159.936 166.6ZM160.336 221.9V228H152.936V227C152.936 227 153.203 227 153.736 227C154.269 227 154.536 227 154.536 227C156.069 227 157.369 226.533 158.436 225.6C159.503 224.6 160.036 223.367 160.036 221.9H160.336ZM173.736 221.9C173.803 223.367 174.369 224.6 175.436 225.6C176.503 226.533 177.769 227 179.236 227C179.236 227 179.503 227 180.036 227C180.636 227 180.936 227 180.936 227V228H173.536V221.9H173.736ZM159.936 166.6L173.736 181.6V228H160.036V178C160.036 174.6 159.869 171.867 159.536 169.8C159.203 167.667 159.036 166.6 159.036 166.6H159.936ZM219.536 168V217.6C219.536 219.933 219.603 222 219.736 223.8C219.936 225.533 220.103 226.9 220.236 227.9C220.436 228.833 220.536 229.3 220.536 229.3H219.636L205.836 213.4V168H219.536ZM219.236 174.1V168H226.736V169C226.736 169 226.436 169 225.836 169C225.303 169 225.036 169 225.036 169C223.569 169 222.269 169.5 221.136 170.5C220.069 171.433 219.536 172.633 219.536 174.1H219.236ZM205.836 174.1C205.769 172.633 205.203 171.433 204.136 170.5C203.136 169.5 201.869 169 200.336 169C200.336 169 200.036 169 199.436 169C198.903 169 198.636 169 198.636 169V168H206.036V174.1H205.836ZM252.566 166.7C253.899 166.7 255.499 166.767 257.366 166.9C259.299 167.033 261.199 167.2 263.066 167.4C264.932 167.533 266.566 167.733 267.966 168C269.432 168.2 270.432 168.4 270.966 168.6L269.666 180.8H268.766C268.766 177.733 267.699 175.3 265.566 173.5C263.432 171.7 260.366 170.8 256.366 170.8C253.166 170.8 250.566 171.5 248.566 172.9C246.632 174.3 245.599 176.167 245.466 178.5C245.332 179.7 245.532 180.8 246.066 181.8C246.666 182.733 247.466 183.567 248.466 184.3C249.532 185.033 250.699 185.767 251.966 186.5L267.666 196.2C270.332 197.533 272.432 199.467 273.966 202C275.499 204.533 276.166 207.6 275.966 211.2C275.766 214.933 274.666 218.167 272.666 220.9C270.732 223.633 268.032 225.733 264.566 227.2C261.166 228.6 257.132 229.3 252.466 229.3C249.599 229.3 246.932 229.067 244.466 228.6C241.999 228.133 239.866 227.5 238.066 226.7C236.332 225.9 234.999 225 234.066 224C233.532 222.667 233.299 221.067 233.366 219.2C233.432 217.267 233.732 215.367 234.266 213.5C234.799 211.567 235.466 209.967 236.266 208.7H237.066C236.866 211.7 237.399 214.467 238.666 217C239.999 219.533 241.932 221.567 244.466 223.1C246.999 224.567 250.032 225.3 253.566 225.3C257.432 225.3 260.332 224.4 262.266 222.6C264.199 220.8 265.166 218.7 265.166 216.3C265.166 214.5 264.566 212.9 263.366 211.5C262.232 210.033 260.332 208.6 257.666 207.2L243.466 198.2C240.132 196.467 237.699 194.167 236.166 191.3C234.699 188.433 234.166 185.3 234.566 181.9C234.899 178.7 235.832 175.967 237.366 173.7C238.966 171.433 241.066 169.7 243.666 168.5C246.266 167.3 249.232 166.7 252.566 166.7ZM270.966 167.6L270.866 169.4H260.166V167.6H270.966ZM316.259 168.3V228H301.759V168.3H316.259ZM338.059 167.9V171.9H280.059V167.9H338.059ZM338.059 171.6V182.2H336.959V181.3C337.025 178.433 336.225 176.167 334.559 174.5C332.959 172.833 330.725 171.967 327.859 171.9V171.6H338.059ZM338.059 166.4V168.9L327.459 167.9C328.725 167.9 330.092 167.833 331.559 167.7C333.025 167.5 334.359 167.3 335.559 167.1C336.759 166.833 337.592 166.6 338.059 166.4ZM301.959 221.7V228H295.259V227C295.259 227 295.425 227 295.759 227C296.159 227 296.359 227 296.359 227C297.825 227 299.059 226.5 300.059 225.5C301.125 224.433 301.692 223.167 301.759 221.7H301.959ZM315.959 221.7H316.259C316.259 223.167 316.792 224.433 317.859 225.5C318.925 226.5 320.225 227 321.759 227C321.759 227 321.925 227 322.259 227C322.659 227 322.859 227 322.859 227V228H315.959V221.7ZM290.259 171.6V171.9C287.325 171.967 285.059 172.833 283.459 174.5C281.925 176.167 281.159 178.433 281.159 181.3V182.2H280.059V171.6H290.259ZM280.059 166.4C280.659 166.533 281.525 166.733 282.659 167C283.859 167.267 285.159 167.5 286.559 167.7C288.025 167.833 289.359 167.9 290.559 167.9L280.059 168.9V166.4ZM363.901 168H374.701C377.434 168 380.101 168.3 382.701 168.9C385.301 169.433 387.634 170.333 389.701 171.6C391.767 172.8 393.401 174.467 394.601 176.6C395.867 178.667 396.501 181.267 396.501 184.4C396.501 186.733 396.001 189.067 395.001 191.4C394.067 193.667 392.567 195.633 390.501 197.3C388.501 198.967 385.867 200.067 382.601 200.6C384.534 201.2 386.367 202.367 388.101 204.1C389.901 205.833 391.301 207.467 392.301 209C392.567 209.533 393.034 210.4 393.701 211.6C394.367 212.733 395.201 214.067 396.201 215.6C397.267 217.067 398.367 218.6 399.501 220.2C400.834 222 402.001 223.4 403.001 224.4C404.001 225.333 405.034 226 406.101 226.4C407.167 226.8 408.401 227 409.801 227V228H401.401C397.801 228 394.734 227.733 392.201 227.2C389.734 226.667 387.567 225.7 385.701 224.3C383.901 222.833 382.234 220.867 380.701 218.4C380.101 217.533 379.467 216.5 378.801 215.3C378.134 214.033 377.467 212.767 376.801 211.5C376.134 210.233 375.534 209 375.001 207.8C374.534 206.6 374.201 205.6 374.001 204.8C373.134 202.667 372.134 201.133 371.001 200.2C369.934 199.2 368.934 198.7 368.001 198.7V197.8C368.001 197.8 368.234 197.8 368.701 197.8C369.167 197.8 369.767 197.8 370.501 197.8C371.901 197.8 373.267 197.567 374.601 197.1C376.001 196.567 377.267 195.6 378.401 194.2C379.534 192.733 380.367 190.6 380.901 187.8C381.034 187.4 381.134 186.833 381.201 186.1C381.334 185.367 381.367 184.533 381.301 183.6C381.167 181.133 380.701 179.167 379.901 177.7C379.167 176.167 378.234 175.033 377.101 174.3C375.967 173.5 374.801 172.967 373.601 172.7C372.467 172.367 371.467 172.2 370.601 172.2C369.334 172.133 368.167 172.133 367.101 172.2C366.101 172.2 365.334 172.167 364.801 172.1C364.734 172.1 364.634 171.767 364.501 171.1C364.367 170.367 364.234 169.667 364.101 169C363.967 168.333 363.901 168 363.901 168ZM364.901 168V228H350.401V168H364.901ZM350.701 221.7L351.101 228H343.901V227C343.967 227 344.134 227 344.401 227C344.734 227 344.967 227 345.101 227C346.567 227 347.801 226.5 348.801 225.5C349.867 224.433 350.434 223.167 350.501 221.7H350.701ZM350.701 174.2H350.501C350.434 172.667 349.867 171.433 348.801 170.5C347.801 169.5 346.601 169 345.201 169C345.001 169 344.734 169 344.401 169C344.134 169 343.967 169 343.901 169V168H351.101L350.701 174.2ZM364.701 221.7H364.901C364.901 223.367 365.467 224.667 366.601 225.6C367.801 226.533 369.067 227 370.401 227C370.401 227 370.534 227 370.801 227C371.067 227 371.267 227 371.401 227V228H364.201L364.701 221.7ZM427.061 168V205.7C427.061 211.833 428.461 216.633 431.261 220.1C434.128 223.567 438.094 225.3 443.161 225.3C448.428 225.3 452.494 223.667 455.361 220.4C458.294 217.133 459.794 212.6 459.861 206.8V168H466.461V206.2C466.461 213.333 464.261 218.967 459.861 223.1C455.528 227.233 449.361 229.3 441.361 229.3C431.694 229.3 424.494 227.267 419.761 223.2C415.028 219.067 412.661 213.433 412.661 206.3V168H427.061ZM412.861 168V173.2H412.661C412.594 171.933 412.128 170.9 411.261 170.1C410.394 169.3 409.328 168.9 408.061 168.9C408.061 168.9 407.828 168.9 407.361 168.9C406.894 168.9 406.661 168.9 406.661 168.9V168H412.861ZM432.961 168V168.9C432.961 168.9 432.728 168.9 432.261 168.9C431.794 168.9 431.561 168.9 431.561 168.9C430.294 168.9 429.228 169.3 428.361 170.1C427.494 170.9 427.061 171.933 427.061 173.2H426.861V168H432.961ZM460.061 168V173.2H459.861C459.794 171.933 459.328 170.9 458.461 170.1C457.594 169.3 456.561 168.9 455.361 168.9C455.361 168.9 455.128 168.9 454.661 168.9C454.194 168.9 453.961 168.9 453.961 168.9V168H460.061ZM472.361 168V168.9C472.361 168.9 472.128 168.9 471.661 168.9C471.261 168.9 471.061 168.9 471.061 168.9C469.794 168.9 468.694 169.3 467.761 170.1C466.894 170.9 466.461 171.933 466.461 173.2H466.261V168H472.361ZM537.38 202.9L538.48 218C537.214 220.133 535.447 222.067 533.18 223.8C530.914 225.467 528.147 226.8 524.88 227.8C521.614 228.8 517.814 229.3 513.48 229.3C506.014 229.233 499.58 227.967 494.18 225.5C488.78 223.033 484.614 219.5 481.68 214.9C478.814 210.233 477.38 204.567 477.38 197.9C477.38 191.367 478.814 185.8 481.68 181.2C484.547 176.533 488.68 172.967 494.08 170.5C499.48 167.967 505.947 166.7 513.48 166.7C518.014 166.7 522.214 167.133 526.08 168C530.014 168.867 533.28 169.967 535.88 171.3L535.98 187.2H535.18C533.514 181.067 530.88 176.767 527.28 174.3C523.68 171.833 519.414 170.6 514.48 170.6C509.614 170.6 505.547 171.733 502.28 174C499.08 176.267 496.647 179.433 494.98 183.5C493.38 187.567 492.58 192.333 492.58 197.8C492.58 203.333 493.38 208.133 494.98 212.2C496.647 216.267 499.047 219.433 502.18 221.7C505.314 223.967 509.08 225.167 513.48 225.3C518.214 225.3 522.114 224.567 525.18 223.1C528.314 221.633 530.78 219.267 532.58 216C534.447 212.733 535.78 208.367 536.58 202.9H537.38ZM579.442 168.3V228H564.942V168.3H579.442ZM601.242 167.9V171.9H543.242V167.9H601.242ZM601.242 171.6V182.2H600.142V181.3C600.209 178.433 599.409 176.167 597.742 174.5C596.142 172.833 593.909 171.967 591.042 171.9V171.6H601.242ZM601.242 166.4V168.9L590.642 167.9C591.909 167.9 593.276 167.833 594.742 167.7C596.209 167.5 597.542 167.3 598.742 167.1C599.942 166.833 600.776 166.6 601.242 166.4ZM565.142 221.7V228H558.442V227C558.442 227 558.609 227 558.942 227C559.342 227 559.542 227 559.542 227C561.009 227 562.242 226.5 563.242 225.5C564.309 224.433 564.876 223.167 564.942 221.7H565.142ZM579.142 221.7H579.442C579.442 223.167 579.976 224.433 581.042 225.5C582.109 226.5 583.409 227 584.942 227C584.942 227 585.109 227 585.442 227C585.842 227 586.042 227 586.042 227V228H579.142V221.7ZM553.442 171.6V171.9C550.509 171.967 548.242 172.833 546.642 174.5C545.109 176.167 544.342 178.433 544.342 181.3V182.2H543.242V171.6H553.442ZM543.242 166.4C543.842 166.533 544.709 166.733 545.842 167C547.042 167.267 548.342 167.5 549.742 167.7C551.209 167.833 552.542 167.9 553.742 167.9L543.242 168.9V166.4ZM627.784 168V228H613.384V168H627.784ZM613.684 221.7V228H606.384V227C606.384 227 606.584 227 606.984 227C607.384 227 607.618 227 607.684 227C609.218 227 610.551 226.5 611.684 225.5C612.818 224.433 613.384 223.167 613.384 221.7H613.684ZM627.584 221.7H627.784C627.851 223.167 628.418 224.433 629.484 225.5C630.618 226.5 631.984 227 633.584 227C633.584 227 633.751 227 634.084 227C634.484 227 634.718 227 634.784 227V228H627.584V221.7ZM627.584 174.3V168H634.784L634.684 169C634.684 169 634.518 169 634.184 169C633.851 169 633.651 169 633.584 169C631.984 169 630.618 169.5 629.484 170.5C628.418 171.5 627.851 172.767 627.784 174.3H627.584ZM613.684 174.3H613.384C613.384 172.767 612.818 171.5 611.684 170.5C610.551 169.5 609.184 169 607.584 169C607.584 169 607.384 169 606.984 169C606.584 169 606.384 169 606.384 169V168H613.684V174.3ZM676.062 166.7C681.395 166.7 686.228 167.433 690.562 168.9C694.895 170.3 698.628 172.367 701.762 175.1C704.895 177.833 707.295 181.133 708.962 185C710.695 188.867 711.562 193.233 711.562 198.1C711.562 202.9 710.695 207.233 708.962 211.1C707.295 214.9 704.895 218.167 701.762 220.9C698.628 223.633 694.895 225.733 690.562 227.2C686.228 228.6 681.395 229.3 676.062 229.3C670.795 229.3 665.995 228.6 661.662 227.2C657.328 225.733 653.595 223.633 650.462 220.9C647.328 218.167 644.928 214.9 643.262 211.1C641.595 207.233 640.762 202.9 640.762 198.1C640.762 193.233 641.595 188.867 643.262 185C644.928 181.133 647.328 177.833 650.462 175.1C653.595 172.367 657.328 170.3 661.662 168.9C665.995 167.433 670.795 166.7 676.062 166.7ZM676.062 225.4C680.128 225.4 683.662 224.3 686.662 222.1C689.728 219.833 692.062 216.667 693.662 212.6C695.328 208.533 696.162 203.7 696.162 198.1C696.162 192.433 695.328 187.567 693.662 183.5C692.062 179.367 689.728 176.2 686.662 174C683.662 171.733 680.128 170.6 676.062 170.6C672.062 170.6 668.562 171.733 665.562 174C662.562 176.2 660.228 179.367 658.562 183.5C656.895 187.567 656.062 192.433 656.062 198.1C656.062 203.7 656.895 208.533 658.562 212.6C660.228 216.667 662.562 219.833 665.562 222.1C668.562 224.3 672.062 225.4 676.062 225.4ZM723.12 166.6L781.82 218.2L782.82 229.3L724.22 177.7L723.12 166.6ZM723.52 221.9V228H716.12V227C716.12 227 716.386 227 716.92 227C717.453 227 717.72 227 717.72 227C719.253 227 720.553 226.533 721.62 225.6C722.686 224.6 723.22 223.367 723.22 221.9H723.52ZM736.92 221.9C736.986 223.367 737.553 224.6 738.62 225.6C739.686 226.533 740.953 227 742.42 227C742.42 227 742.686 227 743.22 227C743.82 227 744.12 227 744.12 227V228H736.72V221.9H736.92ZM723.12 166.6L736.92 181.6V228H723.22V178C723.22 174.6 723.053 171.867 722.72 169.8C722.386 167.667 722.22 166.6 722.22 166.6H723.12ZM782.72 168V217.6C782.72 219.933 782.786 222 782.92 223.8C783.12 225.533 783.286 226.9 783.42 227.9C783.62 228.833 783.72 229.3 783.72 229.3H782.82L769.02 213.4V168H782.72ZM782.42 174.1V168H789.92V169C789.92 169 789.62 169 789.02 169C788.486 169 788.22 169 788.22 169C786.753 169 785.453 169.5 784.32 170.5C783.253 171.433 782.72 172.633 782.72 174.1H782.42ZM769.02 174.1C768.953 172.633 768.386 171.433 767.32 170.5C766.32 169.5 765.053 169 763.52 169C763.52 169 763.22 169 762.62 169C762.086 169 761.82 169 761.82 169V168H769.22V174.1H769.02Z" fill="white"/>
</svg>
