<svg width="725" height="100" viewBox="0 0 725 100" fill="none" xmlns="http://www.w3.org/2000/svg">
<path d="M78.965 6.625V61.625C78.965 69.2917 77.5067 75.9583 74.59 81.625C71.6733 87.25 67.2983 91.6042 61.465 94.6875C55.6317 97.7292 48.3192 99.25 39.5275 99.25C26.9442 99.25 17.34 96.0208 10.715 89.5625C4.09 83.1042 0.777496 73.9792 0.777496 62.1875V6.625H25.59V60.25C25.59 66.7083 26.7983 71.3958 29.215 74.3125C31.6317 77.2292 35.1942 78.6875 39.9025 78.6875C43.2775 78.6875 46.0275 78.0625 48.1525 76.8125C50.2775 75.5208 51.8192 73.5 52.7775 70.75C53.7775 68 54.2775 64.4583 54.2775 60.125V6.625H78.965ZM143.32 25.5625C140.403 25.5625 137.799 26.1875 135.507 27.4375C133.216 28.6458 131.257 30.4167 129.632 32.75C128.007 35.0833 126.757 37.9375 125.882 41.3125C125.049 44.6458 124.632 48.4375 124.632 52.6875C124.632 58.4375 125.362 63.2708 126.82 67.1875C128.278 71.1042 130.487 74.0625 133.445 76.0625C136.445 78.0625 140.195 79.0625 144.695 79.0625C148.778 79.0625 152.695 78.5 156.445 77.375C160.237 76.25 164.049 74.8958 167.882 73.3125V94.1875C163.841 95.9792 159.695 97.2708 155.445 98.0625C151.237 98.8542 146.757 99.25 142.007 99.25C132.091 99.25 123.966 97.2917 117.632 93.375C111.341 89.4167 106.695 83.9375 103.695 76.9375C100.737 69.9375 99.2575 61.8125 99.2575 52.5625C99.2575 45.6458 100.216 39.3125 102.132 33.5625C104.091 27.8125 106.945 22.8333 110.695 18.625C114.445 14.375 119.07 11.1042 124.57 8.8125C130.112 6.47917 136.445 5.3125 143.57 5.3125C147.987 5.3125 152.632 5.83333 157.507 6.875C162.424 7.875 167.216 9.5 171.882 11.75L164.32 31.1875C160.987 29.6042 157.612 28.2708 154.195 27.1875C150.778 26.1042 147.153 25.5625 143.32 25.5625ZM190.238 98V6.625H215.05V98H190.238ZM355.385 98H330.573V60.75H301.885V98H277.073V6.625H301.885V40.5H330.573V6.625H355.385V98ZM410.115 25.9375C416.99 25.9375 422.927 27.1458 427.927 29.5625C432.927 31.9375 436.782 35.5208 439.49 40.3125C442.198 45.1042 443.552 51.1042 443.552 58.3125V69.1875H399.865C400.073 72.8958 401.448 75.9375 403.99 78.3125C406.573 80.6875 410.365 81.875 415.365 81.875C419.782 81.875 423.823 81.4375 427.49 80.5625C431.198 79.6875 435.011 78.3333 438.927 76.5V94.0625C435.511 95.8542 431.782 97.1667 427.74 98C423.698 98.8333 418.594 99.25 412.427 99.25C405.302 99.25 398.927 97.9792 393.302 95.4375C387.677 92.8958 383.24 88.9583 379.99 83.625C376.782 78.2917 375.177 71.4375 375.177 63.0625C375.177 54.5625 376.636 47.5833 379.552 42.125C382.469 36.625 386.552 32.5625 391.802 29.9375C397.052 27.2708 403.157 25.9375 410.115 25.9375ZM410.99 42.5625C408.115 42.5625 405.698 43.4792 403.74 45.3125C401.823 47.1042 400.698 49.9375 400.365 53.8125H421.365C421.323 51.7292 420.907 49.8333 420.115 48.125C419.323 46.4167 418.157 45.0625 416.615 44.0625C415.115 43.0625 413.24 42.5625 410.99 42.5625ZM496.408 25.9375C505.366 25.9375 512.366 28.1667 517.408 32.625C522.449 37.0417 524.97 43.3542 524.97 51.5625V98H508.033L503.345 88.625H502.845C500.845 91.125 498.783 93.1667 496.658 94.75C494.574 96.2917 492.178 97.4167 489.47 98.125C486.762 98.875 483.449 99.25 479.533 99.25C475.449 99.25 471.783 98.4167 468.533 96.75C465.283 95.0833 462.72 92.5625 460.845 89.1875C458.97 85.8125 458.033 81.5417 458.033 76.375C458.033 68.7917 460.658 63.1667 465.908 59.5C471.158 55.8333 478.762 53.7708 488.72 53.3125L500.533 52.9375V51.9375C500.533 48.7708 499.741 46.5208 498.158 45.1875C496.616 43.8542 494.533 43.1875 491.908 43.1875C489.116 43.1875 485.991 43.6875 482.533 44.6875C479.116 45.6458 475.678 46.8958 472.22 48.4375L465.158 32.3125C469.241 30.2292 473.866 28.6458 479.033 27.5625C484.199 26.4792 489.991 25.9375 496.408 25.9375ZM500.658 66.375L495.033 66.625C490.533 66.7917 487.366 67.5833 485.533 69C483.741 70.375 482.845 72.3542 482.845 74.9375C482.845 77.3542 483.491 79.1458 484.783 80.3125C486.074 81.4375 487.783 82 489.908 82C492.866 82 495.387 81.0625 497.47 79.1875C499.595 77.3125 500.658 74.875 500.658 71.875V66.375ZM570.512 98H546.075V0.75H570.512V98ZM626.618 79.9375C628.826 79.9375 630.847 79.7083 632.68 79.25C634.513 78.7917 636.43 78.2083 638.43 77.5V95.3125C635.763 96.4792 632.93 97.4167 629.93 98.125C626.972 98.875 623.18 99.25 618.555 99.25C613.972 99.25 609.93 98.5417 606.43 97.125C602.93 95.6667 600.201 93.1667 598.243 89.625C596.326 86.0417 595.368 81.0625 595.368 74.6875V45.5H586.805V35.5625L597.68 27.875L603.993 13H619.993V27.1875H637.368V45.5H619.993V73.0625C619.993 75.3542 620.576 77.0833 621.743 78.25C622.909 79.375 624.534 79.9375 626.618 79.9375ZM679.723 0.75V14.5625C679.723 19.8125 679.598 24.2292 679.348 27.8125C679.139 31.3542 678.931 34.0625 678.723 35.9375H679.848C681.389 33.4792 683.139 31.5208 685.098 30.0625C687.056 28.6042 689.223 27.5625 691.598 26.9375C693.973 26.2708 696.556 25.9375 699.348 25.9375C704.014 25.9375 708.223 26.8333 711.973 28.625C715.764 30.4167 718.785 33.2292 721.035 37.0625C723.285 40.8542 724.41 45.8125 724.41 51.9375V98H699.848V59.375C699.848 54.6667 699.16 51.125 697.785 48.75C696.41 46.3333 694.285 45.125 691.41 45.125C688.452 45.125 686.118 45.9792 684.41 47.6875C682.702 49.3542 681.493 51.8125 680.785 55.0625C680.077 58.2708 679.723 62.2083 679.723 66.875V98H655.285V0.75H679.723Z" fill="white"/>
</svg>
