<svg width="76" height="76" viewBox="0 0 76 76" fill="none" xmlns="http://www.w3.org/2000/svg">
<rect width="76" height="76" rx="11" fill="#17141D"/>
<path d="M58 34.5722V56H18V24.8889H42.2C42.08 25.5111 42 26.1722 42 26.8333C42 29.7111 43.3 32.2583 45.34 34.0472L38 38.5L22 28.7778V32.6667L38 42.3889L48.6 35.9333C49.68 36.3222 50.8 36.5556 52 36.5556C54.26 36.5556 56.32 35.7972 58 34.5722ZM46 26.8333C46 30.0611 48.68 32.6667 52 32.6667C55.32 32.6667 58 30.0611 58 26.8333C58 23.6056 55.32 21 52 21C48.68 21 46 23.6056 46 26.8333Z" fill="#453D55"/>
</svg>
