<svg width="76" height="76" viewBox="0 0 76 76" fill="none" xmlns="http://www.w3.org/2000/svg">
<rect width="76" height="76" rx="11" fill="#17141D"/>
<path d="M54.6667 18H21.3333C20.4493 18 19.6014 18.3512 18.9763 18.9763C18.3512 19.6014 18 20.4493 18 21.3333V54.6667C18 55.5507 18.3512 56.3986 18.9763 57.0237C19.6014 57.6488 20.4493 58 21.3333 58H54.6667C55.5507 58 56.3986 57.6488 57.0237 57.0237C57.6488 56.3986 58 55.5507 58 54.6667V21.3333C58 20.4493 57.6488 19.6014 57.0237 18.9763C56.3986 18.3512 55.5507 18 54.6667 18Z" stroke="#453D55" stroke-width="4" stroke-linecap="round" stroke-linejoin="round"/>
<path d="M34.6666 45.7778L40.2222 50.2222L49.1111 39.1111M26.8889 28H49.1111M26.8889 36.8889H35.7777" stroke="#453D55" stroke-width="4" stroke-linecap="round" stroke-linejoin="round"/>
</svg>
