<svg width="76" height="76" viewBox="0 0 76 76" fill="none" xmlns="http://www.w3.org/2000/svg">
<rect width="76" height="76" rx="11" fill="#17141D"/>
<path d="M30.0111 58C28.9101 58 27.9679 57.6087 27.1845 56.826C26.3998 56.042 26.0074 55.1 26.0074 54C26.0074 52.9 26.3998 51.958 27.1845 51.174C27.9679 50.3913 28.9101 50 30.0111 50C31.1121 50 32.0543 50.3913 32.8377 51.174C33.6224 51.958 34.0148 52.9 34.0148 54C34.0148 55.1 33.6224 56.042 32.8377 56.826C32.0543 57.6087 31.1121 58 30.0111 58ZM50.0296 58C48.9286 58 47.9864 57.6087 47.203 56.826C46.4183 56.042 46.0259 55.1 46.0259 54C46.0259 52.9 46.4183 51.958 47.203 51.174C47.9864 50.3913 48.9286 50 50.0296 50C51.1306 50 52.0735 50.3913 52.8582 51.174C53.6416 51.958 54.0333 52.9 54.0333 54C54.0333 55.1 53.6416 56.042 52.8582 56.826C52.0735 57.6087 51.1306 58 50.0296 58ZM26.4078 22H55.9351C56.7024 22 57.2863 22.3413 57.6867 23.024C58.087 23.708 58.1037 24.4 57.7367 25.1L50.6301 37.9C50.2631 38.5667 49.7707 39.0833 49.1528 39.45C48.5362 39.8167 47.8609 40 47.1269 40H32.2131L30.0111 44H54.0333V48H30.0111C28.5097 48 27.3753 47.3413 26.608 46.024C25.8406 44.708 25.8072 43.4 26.5079 42.1L29.2104 37.2L22.0037 22H18V18H24.506L26.4078 22Z" fill="#453D55"/>
</svg>
